# xmcd
#
# Track frame offsets:
#	150
#	10787
#	34140
#	49160
#	64807
#	85192
#	97090
#	116237
#	129187
#
# Disc length: 1892 seconds
#
# Revision: 0
# Processed by: cddbd v1.5.1PL0 Copyright (c) Steve Scherf et al.
# Submitted via: dBpowerAMP V4.0
#
DISCID=73076209
DTITLE=PK Dwyer - Up to My Balls in the Blues
DYEAR=2003
DGENRE=Blues
TTITLE0=Please Tell Me
TTITLE1=Tiem to try
TTITLE2=Up to my Balls In the Blues
TTITLE3=Better Tip My Baby
TTITLE4=You Make me Tremble
TTITLE5=Is your Mind Playing Trick on You
TTITLE6=Mumbo Jumbo
TTITLE7=Looking For a Women
TTITLE8=Dontcha Know
EXTD=
EXTT0=
EXTT1=
EXTT2=
EXTT3=
EXTT4=
EXTT5=
EXTT6=
EXTT7=
EXTT8=
PLAYORDER=
